<svg xmlns="http://www.w3.org/2000/svg" viewBox="0 0 7045 1024"><path d="M2408.509363 176.419476C2289.617978 84.374532 2147.715356 38.35206 1982.801498 38.35206s-306.816479 46.022472-425.707865 138.067416c-126.561798 95.88015-191.7603 214.771536-191.7603 356.674157 0 141.902622 65.198502 260.794007 191.7603 356.674157 118.891386 88.209738 260.794007 134.23221 425.707865 134.23221s310.651685-46.022472 425.707865-134.23221c126.561798-95.88015 191.7603-218.606742 191.7603-356.674157s-65.198502-256.958801-191.7603-356.674157M1982.801498 832.2397c-118.891386 0-222.441948-30.681648-306.816479-92.044943-76.70412-57.52809-115.05618-122.726592-115.05618-203.265918 0-80.539326 38.35206-145.737828 115.05618-203.265918 84.374532-61.363296 184.089888-92.044944 306.816479-92.044943 118.891386 0 222.441948 30.681648 306.81648 92.044943 76.70412 57.52809 115.05618 126.561798 115.056179 203.265918s-38.35206 145.737828-115.056179 203.265918c-84.374532 57.52809-187.925094 92.044944-306.81648 92.044943M1093.033708 648.149813c65.198502-65.198502 103.550562-153.40824 103.550562-245.453184s-34.516854-180.254682-103.550562-245.453183c-65.198502-65.198502-153.40824-103.550562-245.453184-103.550562H0V997.153558h195.595506V249.28839h651.985018c42.187266 0 76.70412 15.340824 107.385768 46.022471 30.681648 30.681648 46.022472 65.198502 46.022472 107.385768 0 42.187266-15.340824 76.70412-46.022472 107.385768s-65.198502 46.022472-107.385768 46.022472H306.816479v195.595506h429.543072l249.288389 249.288389h276.134832l-276.134832-276.134831c38.35206-19.17603 76.70412-46.022472 107.385768-76.70412M4065.318352 53.692884H3727.820225l-605.962547 421.872659v241.617978l218.606741-153.40824L3773.842697 997.153558h276.134831L3501.543071 452.554307l498.576779-349.003745zM4119.011236 997.153558h253.123595l567.610487-690.337079 207.101124 245.453184h-283.805243l-161.078652 195.595506h582.951311l222.441947 249.288389h253.123596L4939.745318 0zM6159.340824 429.543071h885.932584v195.595506h-885.932584zM2815.041199 53.692884h195.595505V997.153558h-195.595505z" fill="#E60012" ></path><path d="M5852.524345 53.692884V997.153558h1192.749063v-195.595506h-997.153558V249.28839h997.153558V53.692884z" fill="#E60012" ></path></svg>